<?xml version="1.0" standalone="no"?><!DOCTYPE svg PUBLIC "-//W3C//DTD SVG 1.1//EN" "http://www.w3.org/Graphics/SVG/1.1/DTD/svg11.dtd"><svg t="1723453223041" class="icon" viewBox="0 0 1024 1024" version="1.1" xmlns="http://www.w3.org/2000/svg" p-id="5269" xmlns:xlink="http://www.w3.org/1999/xlink" width="200" height="200"><path d="M780.864 469.333333h60.608L758.528 170.666667H265.472L182.528 469.333333h60.586667l68.586666-256H712.32l68.565333 256zM234.666667 128h554.666666l106.666667 384v384H128V512l106.666667-384z m618.666666 384H170.666667v341.333333h682.666666V512z m-106.666666 277.333333h-42.666667l-42.666667-96V789.333333h-42.666666v-192h42.666666l64 144L789.333333 597.333333h42.666667v192h-42.666667v-96l42.666667-96-85.333333 192z m-488.298667-42.666666L234.666667 789.333333H192l106.666667-192h42.666666l106.666667 192h-42.666667l-23.701333-42.666666H258.346667z m23.701333-42.666667h75.861334L320 635.733333 282.069333 704zM533.333333 640v149.333333h-42.666666v-149.333333h-64v-42.666667h170.666666v42.666667h-64z" fill="#3D3D3D" p-id="5270"></path></svg>