<?xml version="1.0" standalone="no"?><!DOCTYPE svg PUBLIC "-//W3C//DTD SVG 1.1//EN" "http://www.w3.org/Graphics/SVG/1.1/DTD/svg11.dtd"><svg t="1723709140709" class="icon" viewBox="0 0 1024 1024" version="1.1" xmlns="http://www.w3.org/2000/svg" p-id="5987" xmlns:xlink="http://www.w3.org/1999/xlink" width="200" height="200"><path d="M729.361526 1.471066c20.330595-2.413468 41.523143 4.895892 56.015444 19.365208 67.646061 67.60009 135.24615 135.24615 202.880718 202.857733 6.573827 6.229046 12.423614 13.354523 16.342626 21.571807 9.538945 19.169832 9.355062 42.798833-0.517171 61.796274-3.712144 7.378316-8.929832 13.906173-14.883053 19.606554-66.853064 66.841571-133.706128 133.694635-200.559192 200.559192-6.435915 6.792189-13.917666 12.699439-22.468238 16.595466-20.411044 9.68835-45.568575 8.343704-64.830348-3.470797-8.745948-5.079776-15.457688-12.756902-22.594658-19.778945-65.336027-65.336027-130.683547-130.672054-196.019573-196.019574-11.193895-11.078967-18.411313-26.099933-19.962828-41.787474-2.436453-21.502851 6.206061-43.6378 22.134949-58.21055C552.718653 156.760494 620.502626 88.93055 688.33257 21.146577c10.929562-10.941055 25.628732-18.055039 41.028956-19.675511zM77.955017 61.382536c97.940831-0.218361 195.881661-0.011493 293.810999-0.091941 17.8022-0.333288 35.569921 6.642783 48.407272 18.974456 13.492435 12.699439 21.445387 31.041796 21.433895 49.568035 0.034478 96.940965 0.011493 193.893423 0.011493 290.834389 0.183883 18.066532-7.113984 36.02963-19.859394 48.832503-12.699439 12.998249-30.697015 20.571942-48.878474 20.537463-97.274254 0.011493-194.548507 0.034478-291.822761-0.011493-24.548418 0.034478-48.338316-14.388866-59.865499-36.029629C15.411717 443.480494 12.641975 431.447632 12.814366 419.472233c0-96.159461-0.011493-192.330415 0.011493-288.489876-0.206869-17.170101 6.240539-34.317217 17.836677-46.99367 11.975398-13.366016 29.352368-21.721212 47.292481-22.606151zM65.198114 596.885118c10.033131-2.666308 20.48-1.930774 30.742986-2.022716 92.700157 0.022985 185.411807-0.045971 278.111964 0.034478 28.134141 0.12642 54.739753 19.50312 63.69257 46.131717 5.068283 13.320045 3.723636 27.743389 3.873042 41.68404 0 90.803861 0.022985 181.619214-0.011493 272.423076 0.091942 23.468103-12.9178 46.350079-33.018541 58.417418-9.918204 6.33248-21.548822 9.09073-33.110483 10.446869H79.851313c-9.447003-1.057329-18.985948-2.700786-27.570999-6.976072-18.043547-8.470123-31.99569-25.123053-37.075466-44.396319C13.182132 965.421684 12.710932 957.905455 12.802873 950.458182c0.022985-92.688664 0-185.388822 0-278.077486-0.149405-9.607901 0.034478-19.388193 3.011089-28.616835 6.746218-22.847497 26.203367-41.339259 49.384152-46.878743zM541.363861 616.572121c12.733917-13.676319 31.237172-21.732705 49.92431-21.698226 96.573199-0.034478 193.134905 0 289.69661-0.022986 9.079237-0.091942 18.215937 1.413603 26.674568 4.780965 24.525432 9.366554 42.396588 33.788552 43.591829 60.060876 0.402245 17.227565 0.068956 34.466622 0.172391 51.705679v231.003367c0.011493 10.102088 0.436723 20.399551-2.390483 30.225813-5.803816 22.192413-23.479596 40.753131-45.33872 47.67174-5.826801 2.045701-12.009877 2.562873-18.032054 3.700651H589.851582c-6.435915-0.907924-12.963771-1.482559-19.146846-3.585724-22.157935-6.838159-40.063569-25.66321-45.809921-48.119955-3.080045-10.849113-2.137643-22.203906-2.275556-33.328844 0-91.562379-0.011493-183.124759 0-274.687138-0.183883-17.526375 6.665769-34.995286 18.744602-47.706218z" p-id="5988"></path></svg>