<?xml version="1.0" standalone="no"?><!DOCTYPE svg PUBLIC "-//W3C//DTD SVG 1.1//EN" "http://www.w3.org/Graphics/SVG/1.1/DTD/svg11.dtd"><svg t="1723453505666" class="icon" viewBox="0 0 1024 1024" version="1.1" xmlns="http://www.w3.org/2000/svg" p-id="12092" xmlns:xlink="http://www.w3.org/1999/xlink" width="200" height="200"><path d="M856.576 539.136c-13.824 0-24.064-10.752-24.064-24.064V408.576H465.92v106.496c0 13.824-10.752 24.064-24.064 24.064-13.824 0-24.064-10.752-24.064-24.064V384.512c0-13.824 10.752-24.064 24.064-24.064h414.72c13.824 0 24.064 10.752 24.064 24.064v130.56c0.512 13.312-10.24 24.064-24.064 24.064z m-207.36-218.112c-72.704 0-132.096-59.392-132.096-132.096s59.392-132.096 132.096-132.096 132.096 59.392 132.096 132.096-59.392 132.096-132.096 132.096z m0-215.552c-46.08 0-83.456 37.376-83.456 83.456s37.376 83.456 83.456 83.456 83.456-37.376 83.456-83.456c0-45.568-37.376-83.456-83.456-83.456zM866.304 967.68H147.456c-13.824 0-24.064-10.752-24.064-24.064v-351.744c0-13.824 10.752-24.064 24.064-24.064h719.36c13.824 0 24.064 10.752 24.064 24.064v351.744c0 13.312-11.264 24.064-24.576 24.064z m-694.784-48.64h670.72v-303.104h-670.72v303.104z" p-id="12093"></path><path d="M947.712 615.936H65.536c-13.824 0-24.064-10.752-24.064-24.064s10.752-24.064 24.064-24.064h882.176c13.824 0 24.064 10.752 24.064 24.064s-10.24 24.064-24.064 24.064zM357.888 513.024H171.008c-13.824 0-24.064-10.752-24.064-24.064s10.752-24.064 24.064-24.064h186.88c13.824 0 24.064 10.752 24.064 24.064s-10.752 24.064-24.064 24.064z" p-id="12094"></path></svg>