<?xml version="1.0" standalone="no"?><!DOCTYPE svg PUBLIC "-//W3C//DTD SVG 1.1//EN" "http://www.w3.org/Graphics/SVG/1.1/DTD/svg11.dtd"><svg t="1723453599153" class="icon" viewBox="0 0 1024 1024" version="1.1" xmlns="http://www.w3.org/2000/svg" p-id="14165" xmlns:xlink="http://www.w3.org/1999/xlink" width="200" height="200"><path d="M848.82082 348.013313c-4.423723 10.470004-10.536901 19.634907-18.368728 27.489843-7.831826 7.862234-16.962672 14.013118-27.392538 18.444139-10.456625 4.426155-21.494647 6.648355-33.126228 6.648355h-14.459504l-57.204319 104.55652c8.83285 8.049546 15.853397 17.524608 21.075019 28.405725 5.220406 10.875036 7.81723 22.758394 7.817231 35.663452 0 11.680234-2.205172 22.757177-6.614299 33.225966-4.410343 10.4846-10.536901 19.64707-18.355348 27.499573-7.831826 7.865883-16.8678 14.008253-27.121301 18.444139-10.240122 4.429804-21.371799 6.641058-33.424224 6.641058-12.036613 0-23.170723-2.211253-33.410845-6.641058-10.238905-4.435886-19.181223-10.578256-26.795329-18.444139-7.628702-7.852503-13.661604-17.014973-18.070732-27.499573-4.409127-10.468788-6.628895-21.546948-6.628894-33.225966 0-12.905059 2.516547-24.788417 7.522883-35.663452 5.030662-10.881117 11.956336-20.35618 20.789186-28.405725l-103.58347-232.680279c-4.021124 0.795467-7.235834 1.204148-9.64413 1.204147-6.424554 0-12.545031-0.808847-18.366295-2.420458a106.001497 106.001497 0 0 1-16.552775-6.0402l-102.987478 130.541785c4.016259 6.84783 7.222454 14.202863 9.64048 22.068746 2.408296 7.852503 3.611227 16.012733 3.611227 24.462445 0 11.693613-2.207604 22.772989-6.627678 33.242994-4.416425 10.482168-10.536901 19.546116-18.365078 27.202793-7.831826 7.661542-16.864151 13.70904-27.104273 18.131547-10.235256 4.429804-21.377881 6.641058-33.416926 6.641058-11.642528 0-22.687848-2.211253-33.122579-6.641058-10.449327-4.423723-19.482868-10.470004-27.104273-18.131547-7.628702-7.655461-13.648225-16.720626-18.068298-27.189414C178.943662 465.058913 176.736058 453.980753 176.736058 442.285923c0-11.672936 2.207604-22.663521 6.624029-32.93405 4.420074-10.272962 10.439597-19.227443 18.068299-26.904798 7.622621-7.653028 16.654945-13.684714 27.104273-18.121816 10.434731-4.431021 21.480051-6.652004 33.122579-6.652005 2.407079 0 4.617116 0.111901 6.625245 0.311376 1.999615 0.199475 4.010177 0.287049 6.019523 0.287049l117.433603-142.613671c-2.011778-4.030854-3.314447-8.470389-3.922603-13.30036-0.595992-4.836052-0.893989-9.870363-0.893988-15.119961 0-11.672936 2.208821-22.760826 6.625245-33.230831 4.409127-10.468788 10.439597-19.546116 18.057352-27.201577 7.633567-7.653028 16.668325-13.695661 27.104273-18.121817 10.435948-4.440751 21.480051-6.648355 33.11893-6.648355 11.643744 0 22.687848 2.207604 33.123795 6.648355 10.434731 4.426155 19.463407 10.468788 27.107921 18.121817 7.628702 7.655461 13.647009 16.732789 18.057352 27.201577 4.423723 10.470004 6.627678 21.557895 6.627679 33.230831 0 9.675753-1.500928 18.843089-4.517379 27.514169a104.573548 104.573548 0 0 1-12.337042 24.472176l101.760221 228.451165 58.421846-104.544356c-4.410343-6.857561-8.03495-14.412068-10.834898-22.674468-2.813327-8.261184-4.220599-17.029569-4.220599-26.295426 0-11.674152 2.205172-22.765691 6.627678-33.235695 4.409127-10.479735 10.42865-19.546116 18.070732-27.201578 7.628702-7.653028 16.664676-13.692012 27.093325-18.121816 10.443246-4.440751 21.480051-6.659302 33.126228-6.659303 11.631581 0 22.682982 2.218551 33.126228 6.659303 10.42865 4.429804 19.559496 10.468788 27.392538 18.121816 7.83061 7.655461 13.945005 16.723059 18.368728 27.201578 4.423723 10.470004 6.627678 21.561544 6.627678 33.235695 0.003649 12.094996-2.201523 23.368982-6.624029 33.852366zM176.736058 780.735383v-82.187345h678.71244v82.187345H176.736058z" fill="#808080" p-id="14166"></path></svg>